<svg fill="none" height="257" viewBox="0 0 1110 257" width="1110" xmlns="http://www.w3.org/2000/svg"><g fill="#191919"><path d="m293.781 50.8103c38.37 0 75.87 22.62 75.87 73.0097 0 4-.22 10.2-.66 14.56-.1 1-.95 1.76-1.96 1.76h-107.62c3.15 18.04 15.75 29.78 35.5 29.78 13.1 0 21.46-7.24 26.01-15.9.57-1.09 1.81-1.66 3.01-1.4l40.24 8.77c1.23.27 1.88 1.59 1.38 2.74-9.41 21.31-30.81 42.43-70.92 42.43-52.68 0-80.74-34.36-80.74-77.88 0-43.5197 29.2-77.8797 79.88-77.8797zm30.92 61.8497c-2-17.1797-13.46-26.3397-30.06-26.3397-21.76 0-30.92 11.17-34.36 26.3397z"/><path d="m383.4 200.02v-142.6497c0-1.09.88-1.97 1.97-1.97h41.87c1.09 0 1.97.88 1.97 1.97v16.93c10.02-15.75 24.91-23.48 44.09-23.48 28.06 0 52.11 19.18 52.11 62.1297v87.07c0 1.09-.88 1.97-1.97 1.97h-41.87c-1.09 0-1.97-.88-1.97-1.97v-80.49c0-19.18-10.02-29.7797-24.62-29.7797-15.75 0-25.77 10.3097-25.77 33.7897v76.48c0 1.09-.88 1.97-1.97 1.97h-41.87c-1.09 0-1.97-.88-1.97-1.97z"/><path d="m528.22 55.3901h44.41c.87 0 1.63.57 1.89 1.4l33.36 110.5499 33.36-110.5499c.25-.83 1.02-1.4 1.89-1.4h44.41c1.36 0 2.32 1.35 1.85 2.64l-51.08 142.1299c-.39 1.09-1.43 1.83-2.6 1.83h-55.67c-1.16 0-2.2-.73-2.6-1.83l-51.08-142.1299c-.46-1.28.49-2.64 1.85-2.64z"/><path d="m786.541 200.02v-22.37c-7.16 14.89-23.19 28.92-48.1 28.92-28.92 0-50.39-18.32-50.39-44.09 0-27.2 18.04-47.53 57.55-47.53h22.91c12.6 0 16.03-9.16 14.89-15.1697-1.72-10.31-10.88-15.75-23.76-15.75-16.27 0-26.12 8.99-27.36 21.3697-.11 1.13-1.15 1.94-2.27 1.75l-38.84-6.47c-1.08-.18-1.82-1.2097-1.62-2.2797 6.33-33.79 38.37-47.58 71.25-47.58s69.29 8.02 69.29 68.7197v80.49c0 1.09-.88 1.97-1.97 1.97h-39.58c-1.09 0-1.97-.88-1.97-1.97zm-34.64-26.66c18.32 0 30.92-13.74 32.35-30.92h-27.77c-16.89 0-22.91 6.87-22.62 16.32.29 10.02 8.3 14.6 18.04 14.6z"/><path d="m836.94 90.0702v-32.71c0-1.09.88-1.97 1.97-1.97h16.35c7.59 0 13.74-6.1501 13.74-13.7401v-25.5199c0-1.09.88-1.97 1.97-1.97h37.29c1.09 0 1.97.88 1.97 1.97v39.26h30.101c1.09 0 1.969.88 1.969 1.97v32.71c0 1.09-.879 1.9699-1.969 1.9699h-30.101v52.9699c0 17.26 14.67 24.29 29.99 18.85 1.02-.36 2.08.41 2.08 1.48v34.51c0 1.27-.859 2.39-2.089 2.68-3.96.94-9.451 1.75-15.941 1.75-35.5 0-59.84-12.03-59.84-63.56v-48.6698h-25.52c-1.09 0-1.97-.88-1.97-1.97z"/><path d="m1109.52 128.69c0 42.95-30.35 77.88-80.17 77.88-49.819 0-80.169-34.93-80.169-77.88 0-42.9499 30.35-77.8799 80.169-77.8799 49.82 0 80.17 34.93 80.17 77.8799zm-45.81 0c0-21.19-11.74-38.9399-34.36-38.9399s-34.359 17.7499-34.359 38.9399 11.739 38.94 34.359 38.94 34.36-17.75 34.36-38.94z"/></g><path d="m102.231 256.73c6.323 0 11.45-5.127 11.45-11.45 0-6.324-5.127-11.45-11.45-11.45-6.3239 0-11.4502 5.126-11.4502 11.45 0 6.323 5.1263 11.45 11.4502 11.45z" fill="#87e64b"/><path d="m168.001 167.31-64.51 6.91c-1.18.13-1.79-1.38-.85-2.11l63.13-49.15c4.1-3.35 6.71-8.57 5.59-14.16-1.12-8.57-8.2-14.1602-17.14-13.0402l-68.5902 10.0402c-1.21.18-1.86-1.37-.89-2.11l67.9902-51.9102c13.42-10.43 14.53-30.93 2.24-42.84997-11.18-11.18-29.07-10.80999-40.25.37001l-109.56021 111.42016c-4.1 4.47-5.959994 10.43-4.839994 16.77 1.860004 10.06 11.920004 16.77 21.990004 14.91l59.06-12.05c1.28-.26 1.98 1.45.87 2.15l-65.53 41.94c-8.2 5.22-11.92 14.53-9.32 23.85 2.61 12.3 14.91 19.38 26.83 16.4l97.9502-24.13c1.1-.27 1.91 1.01 1.2 1.89l-15.3 18.88c-4.1 5.22 2.61 12.3 8.2 8.2l50.31-41.36c8.94-7.45 2.98-21.99-8.57-20.87z" fill="#87e64b"/></svg>