<svg fill="none" height="17" viewBox="0 0 17 17" width="17" xmlns="http://www.w3.org/2000/svg" xmlns:xlink="http://www.w3.org/1999/xlink"><clipPath id="a"><path d="m0 0h17v17h-17z"/></clipPath><g clip-path="url(#a)"><path d="m3.5415 13.8125c0 .1956-.15856.3542-.35416.3542h-1.41667c-.1956 0-.35417-.1586-.35417-.3542v-6.375c0-.1956.15857-.35417.35417-.35417h1.41667c.1956 0 .35416.15857.35416.35417zm10.625-6.72917h-3.5417l1.098-2.20291c.223-.43814.3326-.92522.3187-1.41667v-.27625c0-.5868-.4757-1.0625-1.0625-1.0625h-.0992c-.1509.00112-.2846.09781-.3329.24083l-.425 1.26084c-.13184.39345-.42958.70931-.81456.86416l-.30459.12042c-.55599.2279-1.02664.62423-1.34583 1.13333l-.86417 1.41667c-.25941.41506-.7147.66681-1.20416.66583h-.63042v5.66662h.41792c.63539-.0089 1.24872.2328 1.70708.673.45262.4531 1.06665.7078 1.70708.7083h4.42005c.5779-.0023 1.0965-.3555 1.3104-.8925l.7579-1.8913c.2002-.5026.3035-1.0385.3046-1.5795v-2.0117c0-.7824-.6343-1.41667-1.4167-1.41667z" fill="#191919"/></g></svg>